<?xml version="1.0" encoding="UTF-8"?>
<svg xmlns="http://www.w3.org/2000/svg" xmlns:xlink="http://www.w3.org/1999/xlink" width="30pt" height="29pt" viewBox="0 0 30 29" version="1.1">
<g>
<path style=" stroke:none;fill-rule:nonzero;fill:rgb(100%,43.137255%,25.490196%);fill-opacity:1;" d="M 29.65625 14.488281 C 29.65625 6.605469 23.070312 0.210938 14.941406 0.210938 C 6.816406 0.210938 0.226562 6.605469 0.226562 14.488281 C 0.226562 22.375 6.816406 28.769531 14.941406 28.769531 C 23.070312 28.769531 29.65625 22.375 29.65625 14.488281 Z M 29.65625 14.488281 "/>
<path style=" stroke:none;fill-rule:nonzero;fill:rgb(100%,100%,99.607843%);fill-opacity:1;" d="M 14.410156 25.589844 C 12.96875 25.074219 11.347656 23.644531 9.523438 21.273438 C 7.34375 18.390625 6.960938 18.246094 5.664062 19.589844 L 4.664062 20.675781 L 4.664062 17.933594 C 4.664062 15.390625 4.695312 15.1875 5.339844 14.933594 L 5.988281 14.644531 L 5.339844 14.445312 C 4.695312 14.246094 4.664062 14.074219 4.664062 11.617188 L 4.664062 9.019531 L 5.636719 9.933594 C 6.285156 10.5625 6.785156 10.789062 7.109375 10.675781 C 7.371094 10.589844 8.316406 9.53125 9.167969 8.304688 C 13.527344 2.304688 16.734375 2.078125 20.914062 7.476562 C 23.007812 10.132812 23.859375 10.902344 24.476562 10.675781 C 24.773438 10.589844 24.980469 10.390625 24.980469 10.246094 C 24.980469 10.105469 25.097656 9.988281 25.273438 9.988281 C 25.449219 9.988281 25.539062 11.847656 25.539062 14.703125 L 25.539062 19.417969 L 24.832031 18.960938 C 23.917969 18.390625 23.625 18.589844 21.976562 20.960938 C 19.03125 25.132812 16.882812 26.472656 14.410156 25.589844 Z M 16.648438 21.359375 C 16.972656 20.988281 17.824219 19.847656 18.589844 18.816406 C 20.0625 16.789062 21.621094 15.304688 22.625 14.988281 C 23.210938 14.816406 23.125 14.703125 21.800781 13.960938 C 20.914062 13.476562 19.796875 12.503906 19.03125 11.503906 C 18.324219 10.617188 17.207031 9.304688 16.527344 8.589844 L 15.320312 7.277344 L 14.675781 7.847656 C 14.292969 8.160156 13.46875 9.191406 12.820312 10.105469 C 11.171875 12.445312 9.816406 13.875 8.785156 14.273438 L 7.902344 14.617188 L 9.140625 15.417969 C 10.582031 16.304688 11.730469 17.476562 13.320312 19.644531 C 14.320312 20.988281 15.410156 21.988281 15.851562 21.988281 C 15.96875 21.988281 16.324219 21.703125 16.648438 21.359375 Z M 16.648438 21.359375 "/>
</g>
</svg>
